<svg width="506" height="505" viewBox="0 0 506 505" fill="none" xmlns="http://www.w3.org/2000/svg">
<path fill-rule="evenodd" clip-rule="evenodd" d="M39.3461 68.4941C29.1836 68.4941 20.9453 76.7325 20.9453 86.8949V389.486H180.93C269.287 389.486 340.915 317.347 340.915 228.99C340.915 140.633 269.287 68.4941 180.93 68.4941H39.3461ZM20.9453 389.488V437.534L68.9919 389.488H20.9453Z" fill="#366AFD"/>
<circle cx="323.025" cy="229.501" r="162.029" fill="#3FB5FF"/>
<path fill-rule="evenodd" clip-rule="evenodd" d="M250.605 84.5146C304.057 110.564 340.915 165.6 340.915 228.983C340.915 292.777 303.576 348.117 249.561 373.955C196.997 347.17 160.996 292.538 160.996 229.499C160.996 166.042 197.474 111.105 250.605 84.5146Z" fill="#25A8FA"/>
</svg>
