<svg width="24" height="24" viewBox="0 0 24 24" fill="none" xmlns="http://www.w3.org/2000/svg">
<path d="M2.8 5.19984L7 7.99984L11.186 2.13984C11.2785 2.01021 11.4006 1.90454 11.5422 1.83164C11.6838 1.75874 11.8407 1.7207 12 1.7207C12.1593 1.7207 12.3162 1.75874 12.4578 1.83164C12.5994 1.90454 12.7215 2.01021 12.814 2.13984L17 7.99984L21.2 5.19984C21.359 5.09408 21.5449 5.03604 21.7357 5.03257C21.9266 5.0291 22.1145 5.08035 22.2772 5.18026C22.4399 5.28017 22.5706 5.42456 22.6538 5.59637C22.7371 5.76819 22.7694 5.96024 22.747 6.14984L21.104 20.1168C21.0753 20.3601 20.9584 20.5844 20.7754 20.7471C20.5923 20.9099 20.3559 20.9998 20.111 20.9998H3.889C3.64407 20.9998 3.40766 20.9099 3.22463 20.7471C3.04159 20.5844 2.92466 20.3601 2.896 20.1168L1.253 6.14884C1.2308 5.95932 1.26329 5.76741 1.34662 5.59576C1.42996 5.4241 1.56066 5.27987 1.72331 5.1801C1.88596 5.08032 2.07376 5.02916 2.26454 5.03266C2.45532 5.03616 2.64112 5.09417 2.8 5.19984ZM12 14.9998C12.5304 14.9998 13.0391 14.7891 13.4142 14.4141C13.7893 14.039 14 13.5303 14 12.9998C14 12.4694 13.7893 11.9607 13.4142 11.5856C13.0391 11.2106 12.5304 10.9998 12 10.9998C11.4696 10.9998 10.9609 11.2106 10.5858 11.5856C10.2107 11.9607 10 12.4694 10 12.9998C10 13.5303 10.2107 14.039 10.5858 14.4141C10.9609 14.7891 11.4696 14.9998 12 14.9998Z" fill="#FFC700"/>
</svg>
