<svg width="25" height="24" viewBox="0 0 25 24" fill="none" xmlns="http://www.w3.org/2000/svg">
<path d="M14.076 17.2706L8.966 14.4836C8.4755 14.9705 7.85182 15.3013 7.17359 15.4342C6.49537 15.5672 5.79296 15.4964 5.15493 15.2307C4.51689 14.9651 3.97179 14.5164 3.58835 13.9414C3.20491 13.3664 3.00029 12.6908 3.00029 11.9996C3.00029 11.3085 3.20491 10.6328 3.58835 10.0578C3.97179 9.4828 4.51689 9.03419 5.15493 8.76852C5.79296 8.50286 6.49537 8.43204 7.17359 8.56499C7.85182 8.69795 8.4755 9.02873 8.966 9.51562L14.076 6.72862C13.9007 5.90636 14.0273 5.04848 14.4326 4.31188C14.8379 3.57527 15.4947 3.00915 16.2831 2.71706C17.0715 2.42496 17.9386 2.4264 18.726 2.72111C19.5134 3.01582 20.1684 3.58411 20.5712 4.32206C20.974 5.06001 21.0978 5.9183 20.9198 6.73998C20.7418 7.56165 20.274 8.29181 19.6019 8.79692C18.9298 9.30204 18.0984 9.54835 17.2596 9.49082C16.4209 9.43329 15.6308 9.07577 15.034 8.48362L9.924 11.2706C10.0259 11.7513 10.0259 12.248 9.924 12.7286L15.034 15.5156C15.6308 14.9235 16.4209 14.566 17.2596 14.5084C18.0984 14.4509 18.9298 14.6972 19.6019 15.2023C20.274 15.7074 20.7418 16.4376 20.9198 17.2593C21.0978 18.0809 20.974 18.9392 20.5712 19.6772C20.1684 20.4151 19.5134 20.9834 18.726 21.2781C17.9386 21.5728 17.0715 21.5743 16.2831 21.2822C15.4947 20.9901 14.8379 20.424 14.4326 19.6874C14.0273 18.9508 13.9007 18.0929 14.076 17.2706Z" fill="white" fill-opacity="0.4"/>
</svg>
