<svg width="25" height="24" viewBox="0 0 25 24" fill="none" xmlns="http://www.w3.org/2000/svg">
<path d="M12.5 22C6.977 22 2.5 17.523 2.5 12C2.5 6.477 6.977 2 12.5 2C18.023 2 22.5 6.477 22.5 12C22.5 17.523 18.023 22 12.5 22ZM11.5 15V17H13.5V15H11.5ZM13.5 13.355C14.3037 13.1128 14.9936 12.59 15.4442 11.8817C15.8947 11.1735 16.0759 10.3271 15.9547 9.49647C15.8336 8.66588 15.4181 7.90644 14.784 7.35646C14.1499 6.80647 13.3394 6.50254 12.5 6.5C11.6909 6.49994 10.9067 6.78015 10.2808 7.29299C9.65492 7.80583 9.22601 8.51963 9.067 9.313L11.029 9.706C11.0847 9.42743 11.2183 9.1704 11.4144 8.96482C11.6104 8.75923 11.8608 8.61354 12.1364 8.54471C12.412 8.47587 12.7015 8.48671 12.9712 8.57597C13.2409 8.66523 13.4797 8.82924 13.6598 9.04891C13.84 9.26858 13.954 9.53489 13.9887 9.81684C14.0234 10.0988 13.9773 10.3848 13.8558 10.6416C13.7343 10.8984 13.5423 11.1154 13.3023 11.2673C13.0623 11.4193 12.7841 11.5 12.5 11.5C12.2348 11.5 11.9804 11.6054 11.7929 11.7929C11.6054 11.9804 11.5 12.2348 11.5 12.5V14H13.5V13.355Z" fill="white" fill-opacity="0.4"/>
</svg>
